<?xml version="1.0" encoding="UTF-8" standalone="no"?>
<svg
   xmlns:dc="http://purl.org/dc/elements/1.1/"
   xmlns:cc="http://creativecommons.org/ns#"
   xmlns:rdf="http://www.w3.org/1999/02/22-rdf-syntax-ns#"
   xmlns:svg="http://www.w3.org/2000/svg"
   xmlns="http://www.w3.org/2000/svg"
   id="svg5598"
   version="1.1"
   viewBox="0 0 200.31604 101.09563"
   height="101.09563mm"
   width="200.31604mm">
  <defs
     id="defs5592" />
  <metadata
     id="metadata5595">
    <rdf:RDF>
      <cc:Work
         rdf:about="">
        <dc:format>image/svg+xml</dc:format>
        <dc:type
           rdf:resource="http://purl.org/dc/dcmitype/StillImage" />
        <dc:title></dc:title>
      </cc:Work>
    </rdf:RDF>
  </metadata>
  <g
     transform="translate(-6.1953629,-21.457591)"
     id="layer1">
    <g
       transform="matrix(0.38794672,0,0,0.37698477,54.15146,25.301926)"
       id="g6237">
      <path
         style="display:inline;fill:#333333;stroke:#000000;stroke-width:0.26458332px;stroke-linecap:butt;stroke-linejoin:miter;stroke-opacity:1"
         d="m 52.287167,232.72587 -173.205097,-100 43.30131,-25 173.204987,100 z"
         id="path7292-96-4-9" />
      <path
         style="display:inline;fill:#333333;fill-opacity:1;stroke:none;stroke-width:0.26458332px;stroke-linecap:butt;stroke-linejoin:miter;stroke-opacity:1"
         d="m -77.61662,107.72587 129.903787,-75.000005 43.3012,25 -173.204987,100.000005 -43.30131,-25 z"
         id="path7294-9-4-4" />
      <path
         style="display:inline;fill:#b3b3b3;stroke:none;stroke-width:0.26458332px;stroke-linecap:butt;stroke-linejoin:miter;stroke-opacity:1"
         d="m 95.588367,57.725865 v 20 l -112.5832,65.000005 -17.320486,-10 z"
         id="path7296-8-3-47" />
      <path
         style="display:inline;fill:#b3b3b3;fill-opacity:1;stroke:none;stroke-width:0.26458332px;stroke-linecap:butt;stroke-linejoin:miter;stroke-opacity:1"
         d="m 95.588367,207.72587 v 20 l -43.3012,25 v -20 l 43.3012,-25"
         id="path7298-9-4-0" />
      <path
         style="display:inline;fill:#808080;fill-opacity:1;stroke:#000000;stroke-width:0.26458332px;stroke-linecap:butt;stroke-linejoin:miter;stroke-opacity:1"
         d="m -120.91793,132.72587 v 20 l 173.205097,100 v -20 l -173.205097,-100"
         id="path7300-5-4-97" />
      <path
         style="display:inline;fill:#333333;stroke:#000000;stroke-width:0.26458332px;stroke-linecap:butt;stroke-linejoin:miter;stroke-opacity:1"
         d="M 346.73577,152.72587 173.53068,52.725865 216.83196,27.725864 390.03708,127.72587 Z"
         id="path7292-9-7-8-71" />
      <path
         style="display:inline;fill:#333333;fill-opacity:1;stroke:none;stroke-width:0.26458332px;stroke-linecap:butt;stroke-linejoin:miter;stroke-opacity:1"
         d="m 216.83196,177.72587 129.90381,-75 43.30131,25 -173.20512,100 -43.30128,-25 z"
         id="path7294-0-3-9-9" />
      <path
         style="display:inline;fill:#808080;fill-opacity:1;stroke:#000000;stroke-width:0.26458332px;stroke-linecap:butt;stroke-linejoin:miter;stroke-opacity:1"
         d="m 173.53068,202.72587 v 20 l 43.30128,25 v -20 z"
         id="path7341-7-4-7" />
      <path
         style="display:inline;fill:#808080;fill-opacity:1;stroke:none;stroke-width:0.26458332px;stroke-linecap:butt;stroke-linejoin:miter;stroke-opacity:1"
         d="m 173.53068,52.725865 v 19.999999 l 112.5833,65.000006 17.3205,-10 -129.9038,-75.000005"
         id="path7343-4-3-8" />
      <path
         style="display:inline;fill:#b3b3b3;fill-opacity:1;stroke:none;stroke-width:0.26458332px;stroke-linecap:butt;stroke-linejoin:miter;stroke-opacity:1"
         d="m 216.83196,227.72587 173.20512,-100 v 20 l -173.20512,100 z"
         id="path7345-6-7-0" />
      <path
         style="display:inline;fill:#333333;stroke:#000000;stroke-width:0.26458332px;stroke-linecap:butt;stroke-linejoin:miter;stroke-opacity:1"
         d="M 52.287167,199.97157 -120.91803,99.971567 -77.616729,74.971566 95.588367,174.97157 Z"
         id="path7292-7-8-7" />
      <path
         style="display:inline;fill:#333333;fill-opacity:1;stroke:none;stroke-width:0.26458332px;stroke-linecap:butt;stroke-linejoin:miter;stroke-opacity:1"
         d="M -77.616729,74.971566 52.287167,-0.02843597 95.588367,24.971565 -77.616729,124.97157 -120.91803,99.971567 Z"
         id="path7294-07-6-8" />
      <path
         style="display:inline;fill:#b3b3b3;stroke:none;stroke-width:0.26458332px;stroke-linecap:butt;stroke-linejoin:miter;stroke-opacity:1"
         d="m 95.588367,24.971565 v 20 L -16.994923,109.97157 -34.315417,99.971567 Z"
         id="path7296-83-7-3" />
      <path
         style="display:inline;fill:#b3b3b3;fill-opacity:1;stroke:none;stroke-width:0.26458332px;stroke-linecap:butt;stroke-linejoin:miter;stroke-opacity:1"
         d="m 95.588367,174.97157 v 20 l -43.3012,25 v -20 l 43.3012,-25"
         id="path7298-29-9-1" />
      <path
         style="display:inline;fill:#808080;fill-opacity:1;stroke:#000000;stroke-width:0.26458332px;stroke-linecap:butt;stroke-linejoin:miter;stroke-opacity:1"
         d="m -120.91803,99.971567 v 20.000003 l 173.205197,100 v -20 L -120.91803,99.971567"
         id="path7300-1-3-1" />
      <path
         style="display:inline;fill:#333333;stroke:#000000;stroke-width:0.26458332px;stroke-linecap:butt;stroke-linejoin:miter;stroke-opacity:1"
         d="M 346.73577,119.97157 173.53068,19.971564 216.83196,-5.0284359 390.03708,94.971567 Z"
         id="path7292-9-6-2-20" />
      <path
         style="display:inline;fill:#333333;fill-opacity:1;stroke:none;stroke-width:0.26458332px;stroke-linecap:butt;stroke-linejoin:miter;stroke-opacity:1"
         d="m 216.83196,144.97157 129.90381,-75.000005 43.30131,25.000002 -173.20512,100.000003 -43.30128,-25 z"
         id="path7294-0-4-3-4" />
      <path
         style="display:inline;fill:#808080;fill-opacity:1;stroke:#000000;stroke-width:0.26458332px;stroke-linecap:butt;stroke-linejoin:miter;stroke-opacity:1"
         d="m 173.53068,169.97157 v 20 l 43.30128,25 v -20 z"
         id="path7341-6-3-59" />
      <path
         style="display:inline;fill:#808080;fill-opacity:1;stroke:none;stroke-width:0.26458332px;stroke-linecap:butt;stroke-linejoin:miter;stroke-opacity:1"
         d="m 173.53068,19.971564 v 20 l 112.5833,65.000006 17.3205,-10.000003 -129.9038,-75.000003"
         id="path7343-7-0-31" />
      <path
         style="display:inline;fill:#b3b3b3;fill-opacity:1;stroke:none;stroke-width:0.26458332px;stroke-linecap:butt;stroke-linejoin:miter;stroke-opacity:1"
         d="M 216.83196,194.97157 390.03708,94.971567 v 20.000003 l -173.20512,100 z"
         id="path7345-1-4-73" />
      <path
         style="display:inline;fill:#333333;stroke:none;stroke-width:0.26458332px;stroke-linecap:butt;stroke-linejoin:miter;stroke-opacity:1"
         d="m 130.22946,74.971566 86.60256,50.000004 -86.60256,50 z"
         id="path7391-1-8-7" />
      <path
         style="display:inline;fill:#666666;stroke:none;stroke-width:0.26458332px;stroke-linecap:butt;stroke-linejoin:miter;stroke-opacity:1"
         d="m 130.22946,74.971566 -86.602553,50.000004 86.602553,50 z"
         id="path7393-9-2-7" />
      <path
         style="display:inline;fill:#ffffff;stroke:none;stroke-width:0.26458332px;stroke-linecap:butt;stroke-linejoin:miter;stroke-opacity:1"
         d="m 121.56916,102.72587 -8.66025,-5.000003 -51.961533,30.000003 51.961533,30 8.66025,-5 -43.301273,-25 43.301273,-25"
         id="path9330" />
      <path
         style="display:inline;fill:#808080;fill-opacity:1;stroke:none;stroke-width:0.26458332px;stroke-linecap:butt;stroke-linejoin:miter;stroke-opacity:1"
         d="m 78.267887,127.72587 v 10 l 34.641023,20 8.66025,-5 z"
         id="path9332" />
      <path
         style="display:inline;fill:#b3b3b3;fill-opacity:1;stroke:none;stroke-width:0.26458332px;stroke-linecap:butt;stroke-linejoin:miter;stroke-opacity:1"
         d="M 60.947377,127.72587 112.90891,97.725867 v 10.000003 l -34.641023,20 v 10 z"
         id="path9334" />
      <path
         style="display:inline;fill:#808080;fill-opacity:1;stroke:none;stroke-width:0.26458332px;stroke-linecap:butt;stroke-linejoin:miter;stroke-opacity:1"
         d="m 112.90891,97.725867 8.66025,5.000003 -8.66025,5 z"
         id="path9336" />
      <path
         style="display:inline;fill:#ffffff;stroke:none;stroke-width:0.26458332px;stroke-linecap:butt;stroke-linejoin:miter;stroke-opacity:1"
         d="m 147.54992,157.72587 -8.66025,-5 43.30127,-25 -43.30127,-25 8.66025,-5.000003 51.96152,30.000003 z"
         id="path9338" />
      <path
         style="display:inline;fill:#b3b3b3;fill-opacity:1;stroke:none;stroke-width:0.26458332px;stroke-linecap:butt;stroke-linejoin:miter;stroke-opacity:1"
         d="m 182.19094,127.72587 v 10 l -34.64102,20 -8.66025,-5 z"
         id="path9340" />
      <path
         style="display:inline;fill:#808080;fill-opacity:1;stroke:none;stroke-width:0.26458332px;stroke-linecap:butt;stroke-linejoin:miter;stroke-opacity:1"
         d="m 147.54992,97.725867 v 10.000003 l 34.64102,20 v 10 l 17.3205,-10 z"
         id="path9342" />
      <path
         style="display:inline;fill:#b3b3b3;fill-opacity:1;stroke:none;stroke-width:0.26458332px;stroke-linecap:butt;stroke-linejoin:miter;stroke-opacity:1"
         d="m 138.88967,102.72587 8.66025,-5.000003 v 10.000003 z"
         id="path9344" />
    </g>
  </g>
</svg>
